<?xml version="1.0" encoding="UTF-8"?>
<svg xmlns="http://www.w3.org/2000/svg" viewBox="0 0 96 96" width="96px" height="96px">
  <g id="surface84706660">
    <path style=" stroke:none;fill-rule:nonzero;fill:rgb(94.509804%,92.54902%,92.54902%);fill-opacity:1;"
      d="M 48 8 C 25.945312 8 8 25.945312 8 48 C 8 70.054688 25.945312 88 48 88 C 70.054688 88 88 70.054688 88 48 C 88 25.945312 70.054688 8 48 8 Z M 48 8 " />
    <path style=" stroke:none;fill-rule:nonzero;fill:rgb(89.803922%,11.764706%,11.764706%);fill-opacity:1;"
      d="M 82 48 C 82 66.777344 66.777344 82 48 82 C 29.222656 82 14 66.777344 14 48 C 14 29.222656 29.222656 14 48 14 C 66.777344 14 82 29.222656 82 48 Z M 82 48 " />
    <path style=" stroke:none;fill-rule:nonzero;fill:rgb(100%,100%,100%);fill-opacity:1;"
      d="M 30 56 L 44 56 L 44 60 L 30 60 Z M 52 56 L 66 56 L 66 60 L 52 60 Z M 30 50 L 44 50 L 44 54 L 30 54 Z M 52 50 L 66 50 L 66 54 L 52 54 Z M 40 42 L 40 36 C 40 31.585938 43.585938 28 48 28 C 52.40625 28 56 31.585938 56 36 L 56 42 L 60 42 L 60 36 C 60 29.375 54.625 24 48 24 C 41.375 24 36 29.375 36 36 L 36 42 Z M 30 44 L 66 44 L 66 48 L 30 48 Z M 30 62 L 66 62 L 66 66 L 30 66 Z M 30 62 " />
  </g>
</svg>
